<svg width="354" height="346" viewBox="0 0 354 346" fill="none" xmlns="http://www.w3.org/2000/svg">
<ellipse cx="176.575" cy="172.871" rx="176.575" ry="172.871" fill="#D1D3DE" fill-opacity="0.25"/>
<ellipse cx="177.14" cy="173.2" rx="140.14" ry="137.2" fill="#D1D3DE" fill-opacity="0.25"/>
<ellipse cx="177.1" cy="173" rx="100.1" ry="98" fill="#D1D3DE" fill-opacity="0.25"/>
<ellipse cx="177.5" cy="173" rx="71.5" ry="70" fill="#D1D3DE"/>
<path fill-rule="evenodd" clip-rule="evenodd" d="M166 242.099C200.021 236.714 226 207.827 226 173C226 138.173 200.021 109.286 166 103.901C169.744 103.308 173.585 103 177.5 103C216.988 103 249 134.34 249 173C249 211.66 216.988 243 177.5 243C173.585 243 169.744 242.692 166 242.099Z" fill="#C3C5D0" fill-opacity="0.8"/>
<path fill-rule="evenodd" clip-rule="evenodd" d="M202.5 116C202.776 116 203 115.776 203 115.5C203 115.224 202.776 115 202.5 115C202.224 115 202 115.224 202 115.5C202 115.776 202.224 116 202.5 116ZM188 116.5C188 116.776 187.776 117 187.5 117C187.224 117 187 116.776 187 116.5C187 116.224 187.224 116 187.5 116C187.776 116 188 116.224 188 116.5ZM211 126.5C211 128.433 209.433 130 207.5 130C205.567 130 204 128.433 204 126.5C204 124.567 205.567 123 207.5 123C209.433 123 211 124.567 211 126.5ZM149.5 129C150.881 129 152 127.881 152 126.5C152 125.119 150.881 124 149.5 124C148.119 124 147 125.119 147 126.5C147 127.881 148.119 129 149.5 129ZM162 151C162 152.657 160.657 154 159 154C157.343 154 156 152.657 156 151C156 149.343 157.343 148 159 148C160.657 148 162 149.343 162 151ZM139 163.5C139 164.881 137.881 166 136.5 166C135.119 166 134 164.881 134 163.5C134 162.119 135.119 161 136.5 161C137.881 161 139 162.119 139 163.5ZM147 201.5C147 202.881 145.881 204 144.5 204C143.119 204 142 202.881 142 201.5C142 200.119 143.119 199 144.5 199C145.881 199 147 200.119 147 201.5ZM172.5 222C174.433 222 176 220.433 176 218.5C176 216.567 174.433 215 172.5 215C170.567 215 169 216.567 169 218.5C169 220.433 170.567 222 172.5 222ZM186.5 183C187.881 183 189 181.881 189 180.5C189 179.119 187.881 178 186.5 178C185.119 178 184 179.119 184 180.5C184 181.881 185.119 183 186.5 183ZM191 147.5C191 148.881 189.881 150 188.5 150C187.119 150 186 148.881 186 147.5C186 146.119 187.119 145 188.5 145C189.881 145 191 146.119 191 147.5ZM218.5 220C219.881 220 221 218.881 221 217.5C221 216.119 219.881 215 218.5 215C217.119 215 216 216.119 216 217.5C216 218.881 217.119 220 218.5 220ZM232 156.5C232 157.881 230.881 159 229.5 159C228.119 159 227 157.881 227 156.5C227 155.119 228.119 154 229.5 154C230.881 154 232 155.119 232 156.5ZM159.5 169C159.776 169 160 168.776 160 168.5C160 168.224 159.776 168 159.5 168C159.224 168 159 168.224 159 168.5C159 168.776 159.224 169 159.5 169ZM183 184.5C183 184.776 182.776 185 182.5 185C182.224 185 182 184.776 182 184.5C182 184.224 182.224 184 182.5 184C182.776 184 183 184.224 183 184.5ZM183.5 177C183.776 177 184 176.776 184 176.5C184 176.224 183.776 176 183.5 176C183.224 176 183 176.224 183 176.5C183 176.776 183.224 177 183.5 177ZM192 182.5C192 182.776 191.776 183 191.5 183C191.224 183 191 182.776 191 182.5C191 182.224 191.224 182 191.5 182C191.776 182 192 182.224 192 182.5ZM232.5 160C232.776 160 233 159.776 233 159.5C233 159.224 232.776 159 232.5 159C232.224 159 232 159.224 232 159.5C232 159.776 232.224 160 232.5 160ZM221 170.5C221 170.776 220.776 171 220.5 171C220.224 171 220 170.776 220 170.5C220 170.224 220.224 170 220.5 170C220.776 170 221 170.224 221 170.5ZM229.5 189C229.776 189 230 188.776 230 188.5C230 188.224 229.776 188 229.5 188C229.224 188 229 188.224 229 188.5C229 188.776 229.224 189 229.5 189ZM245 178.5C245 178.776 244.776 179 244.5 179C244.224 179 244 178.776 244 178.5C244 178.224 244.224 178 244.5 178C244.776 178 245 178.224 245 178.5ZM242.5 172C242.776 172 243 171.776 243 171.5C243 171.224 242.776 171 242.5 171C242.224 171 242 171.224 242 171.5C242 171.776 242.224 172 242.5 172ZM236 166.5C236 166.776 235.776 167 235.5 167C235.224 167 235 166.776 235 166.5C235 166.224 235.224 166 235.5 166C235.776 166 236 166.224 236 166.5ZM209.5 162C209.776 162 210 161.776 210 161.5C210 161.224 209.776 161 209.5 161C209.224 161 209 161.224 209 161.5C209 161.776 209.224 162 209.5 162ZM205 144.5C205 144.776 204.776 145 204.5 145C204.224 145 204 144.776 204 144.5C204 144.224 204.224 144 204.5 144C204.776 144 205 144.224 205 144.5ZM178.5 124C178.776 124 179 123.776 179 123.5C179 123.224 178.776 123 178.5 123C178.224 123 178 123.224 178 123.5C178 123.776 178.224 124 178.5 124ZM166.5 119C166.776 119 167 118.776 167 118.5C167 118.224 166.776 118 166.5 118C166.224 118 166 118.224 166 118.5C166 118.776 166.224 119 166.5 119ZM218 125.5C218 125.776 217.776 126 217.5 126C217.224 126 217 125.776 217 125.5C217 125.224 217.224 125 217.5 125C217.776 125 218 125.224 218 125.5ZM131 137.5C131 137.776 130.776 138 130.5 138C130.224 138 130 137.776 130 137.5C130 137.224 130.224 137 130.5 137C130.776 137 131 137.224 131 137.5ZM140.5 146C140.776 146 141 145.776 141 145.5C141 145.224 140.776 145 140.5 145C140.224 145 140 145.224 140 145.5C140 145.776 140.224 146 140.5 146ZM151 121.5C151 121.776 150.776 122 150.5 122C150.224 122 150 121.776 150 121.5C150 121.224 150.224 121 150.5 121C150.776 121 151 121.224 151 121.5ZM190.5 238C190.776 238 191 237.776 191 237.5C191 237.224 190.776 237 190.5 237C190.224 237 190 237.224 190 237.5C190 237.776 190.224 238 190.5 238ZM195 220.5C195 220.776 194.776 221 194.5 221C194.224 221 194 220.776 194 220.5C194 220.224 194.224 220 194.5 220C194.776 220 195 220.224 195 220.5ZM175.5 195C175.776 195 176 194.776 176 194.5C176 194.224 175.776 194 175.5 194C175.224 194 175 194.224 175 194.5C175 194.776 175.224 195 175.5 195ZM182 207.5C182 207.776 181.776 208 181.5 208C181.224 208 181 207.776 181 207.5C181 207.224 181.224 207 181.5 207C181.776 207 182 207.224 182 207.5ZM161.5 208C161.776 208 162 207.776 162 207.5C162 207.224 161.776 207 161.5 207C161.224 207 161 207.224 161 207.5C161 207.776 161.224 208 161.5 208ZM168 221C168 221.552 167.552 222 167 222C166.448 222 166 221.552 166 221C166 220.448 166.448 220 167 220C167.552 220 168 220.448 168 221ZM145 230C145.552 230 146 229.552 146 229C146 228.448 145.552 228 145 228C144.448 228 144 228.448 144 229C144 229.552 144.448 230 145 230ZM128 195C128 195.552 127.552 196 127 196C126.448 196 126 195.552 126 195C126 194.448 126.448 194 127 194C127.552 194 128 194.448 128 195ZM140 179C140.552 179 141 178.552 141 178C141 177.448 140.552 177 140 177C139.448 177 139 177.448 139 178C139 178.552 139.448 179 140 179ZM119 161C119 161.552 118.552 162 118 162C117.448 162 117 161.552 117 161C117 160.448 117.448 160 118 160C118.552 160 119 160.448 119 161ZM166 161C166.552 161 167 160.552 167 160C167 159.448 166.552 159 166 159C165.448 159 165 159.448 165 160C165 160.552 165.448 161 166 161ZM161 187C161 187.552 160.552 188 160 188C159.448 188 159 187.552 159 187C159 186.448 159.448 186 160 186C160.552 186 161 186.448 161 187ZM207 198C207.552 198 208 197.552 208 197C208 196.448 207.552 196 207 196C206.448 196 206 196.448 206 197C206 197.552 206.448 198 207 198ZM177 119C177 119.552 176.552 120 176 120C175.448 120 175 119.552 175 119C175 118.448 175.448 118 176 118C176.552 118 177 118.448 177 119ZM181 234C181.552 234 182 233.552 182 233C182 232.448 181.552 232 181 232C180.448 232 180 232.448 180 233C180 233.552 180.448 234 181 234ZM233 201C233 201.552 232.552 202 232 202C231.448 202 231 201.552 231 201C231 200.448 231.448 200 232 200C232.552 200 233 200.448 233 201ZM227 138C227.552 138 228 137.552 228 137C228 136.448 227.552 136 227 136C226.448 136 226 136.448 226 137C226 137.552 226.448 138 227 138ZM191 162C191 162.552 190.552 163 190 163C189.448 163 189 162.552 189 162C189 161.448 189.448 161 190 161C190.552 161 191 161.448 191 162ZM219 170C219.552 170 220 169.552 220 169C220 168.448 219.552 168 219 168C218.448 168 218 168.448 218 169C218 169.552 218.448 170 219 170Z" fill="#B1B4C7"/>
</svg>
